<svg xmlns="http://www.w3.org/2000/svg" xmlns:xlink="http://www.w3.org/1999/xlink" width="14px" height="13px">
    <path fill-rule="evenodd" fill="rgb(255, 242, 150)"
        d="M12.235,7.935 L1.870,7.935 C1.065,7.935 0.412,7.282 0.412,6.477 C0.412,5.672 1.065,5.020 1.870,5.020 L12.235,5.020 C13.040,5.020 13.692,5.672 13.692,6.477 C13.692,7.282 13.040,7.935 12.235,7.935 ZM12.235,3.077 L1.870,3.077 C1.065,3.077 0.412,2.424 0.412,1.619 C0.412,0.814 1.065,0.161 1.870,0.161 L12.235,0.161 C13.040,0.161 13.692,0.814 13.692,1.619 C13.692,2.424 13.040,3.077 12.235,3.077 ZM1.870,9.878 L12.235,9.878 C13.040,9.878 13.692,10.531 13.692,11.336 C13.692,12.141 13.040,12.793 12.235,12.793 L1.870,12.793 C1.065,12.793 0.412,12.141 0.412,11.336 C0.412,10.531 1.065,9.878 1.870,9.878 Z" />
</svg>