<?xml version="1.0" encoding="UTF-8"?>
<svg viewBox="0 0 12 12" version="1.1" xmlns="http://www.w3.org/2000/svg" xmlns:xlink="http://www.w3.org/1999/xlink">
    <title>多选-选中</title>
    <g id="定稿" stroke="none" stroke-width="1" fill="none" fill-rule="evenodd">
        <g id="Artboard" transform="translate(-340.000000, -295.000000)" fill="#FECE31" fill-rule="nonzero">
            <g id="编组" transform="translate(340.000000, 295.000000)">
                <path
                    d="M10.8851899,3.34106148 L9.36326273,2.12283217 C9.13321802,1.93947128 8.79884459,1.9734006 8.61032138,2.19923413 L4.91628644,6.6099195 C4.82843131,6.71533831 4.70151174,6.78053342 4.56464904,6.79054601 C4.42778635,6.80055859 4.29272982,6.7545291 4.19046778,6.66301886 L2.74417861,5.37258969 C2.59407712,5.23859087 2.39231286,5.17799563 2.19322045,5.20712211 C1.99412804,5.23624859 1.81817758,5.3521021 1.7127521,5.52348357 L0.971271038,6.72872455 C0.824108239,6.96782762 0.884340609,7.27977488 1.1099406,7.44690301 L4.47964921,9.94410119 C4.6950581,10.1033711 4.99456738,10.081119 5.18407532,9.89176585 L6.42560723,8.65099796 L6.42560723,8.65099796 L10.929121,4.14672018 C11.0383736,4.03804914 11.0960523,3.88791538 11.0876622,3.73404812 C11.0792721,3.58018086 11.0056108,3.43720884 10.8851899,3.34106148 L10.8851899,3.34106148 Z"
                    id="路径"></path>
            </g>
        </g>
    </g>
</svg>